<svg xmlns="http://www.w3.org/2000/svg" width="800" height="800" viewBox="0 0 800 800"><path fill="#1A1A1A" d="M697.139 274.456a320.898 320.898 0 0 0-41.239-70.751l28.211-28.211-60.104-60.104-28.277 28.278a320.88 320.88 0 0 0-70.185-40.806C485.758 86.033 443.519 77.5 400 77.5s-85.758 8.533-125.544 25.361c-38.408 16.245-72.894 39.493-102.498 69.097s-52.852 64.089-69.097 102.498C86.033 314.242 77.5 356.481 77.5 400s8.533 85.758 25.361 125.545a320.874 320.874 0 0 0 40.806 70.184l-28.777 28.777 60.104 60.104 28.711-28.711a320.858 320.858 0 0 0 70.751 41.239C314.242 713.967 356.481 722.5 400 722.5s85.758-8.533 125.545-25.361c38.408-16.245 72.893-39.492 102.497-69.097s52.852-64.089 69.097-102.497C713.967 485.758 722.5 443.519 722.5 400s-8.533-85.758-25.361-125.544zM162.5 400c0-130.958 106.542-237.5 237.5-237.5 50.03 0 96.487 15.563 134.813 42.084L204.584 534.812C178.063 496.487 162.5 450.03 162.5 400zM400 637.5c-50.288 0-96.965-15.724-135.402-42.494l330.408-330.408C621.776 303.035 637.5 349.712 637.5 400c0 130.958-106.542 237.5-237.5 237.5z"/></svg>