<svg xmlns="http://www.w3.org/2000/svg" width="800" height="137" viewBox="0 0 800 137"><path d="M0 116.259l76.307-92.284H2.093V.951h104.471V20.74L32.73 113.025h74.404v23.023H0v-19.789zm218.455-3.234v23.023h-93.814V.951h92.102v23.024h-65.841v32.537h56.897v21.311h-56.897v35.202h67.553zm19.104 23.024V.951h59.752c6.215 0 11.956 1.303 17.221 3.901 5.263 2.602 9.8 6.027 13.606 10.275 3.806 4.251 6.785 9.071 8.943 14.461 2.156 5.393 3.235 10.816 3.235 16.269 0 8.753-2.188 16.715-6.564 23.88-4.377 7.168-10.309 12.338-17.793 15.507l30.828 50.806h-29.495l-27.593-45.287H263.82v45.287h-26.261zm26.261-68.31h32.92c2.409 0 4.662-.571 6.755-1.713 2.094-1.141 3.901-2.693 5.423-4.661 1.523-1.965 2.727-4.281 3.616-6.945.886-2.664 1.332-5.518 1.332-8.563 0-3.169-.508-6.089-1.522-8.752-1.017-2.664-2.378-4.977-4.091-6.946-1.713-1.964-3.681-3.487-5.899-4.566-2.221-1.076-4.472-1.617-6.755-1.617H263.82v43.763zM416.68 137c-9.896 0-18.872-1.934-26.927-5.804-8.058-3.867-14.971-9.006-20.742-15.412-5.773-6.405-10.246-13.73-13.415-21.979-3.173-8.242-4.758-16.679-4.758-25.306 0-9.005 1.68-17.63 5.043-25.878 3.359-8.244 7.993-15.537 13.892-21.882 5.898-6.342 12.907-11.384 21.027-15.126C398.917 1.873 407.736 0 417.25 0c9.767 0 18.679 1.997 26.737 5.994 8.054 3.995 14.936 9.228 20.645 15.697 5.71 6.469 10.148 13.828 13.321 22.072 3.169 8.247 4.757 16.619 4.757 25.116 0 9.008-1.649 17.601-4.947 25.783-3.3 8.181-7.868 15.413-13.701 21.691-5.837 6.279-12.814 11.291-20.932 15.032-8.12 3.745-16.936 5.615-26.45 5.615zm-39.201-68.5c0 5.836.886 11.481 2.665 16.935 1.775 5.455 4.344 10.275 7.707 14.461 3.36 4.186 7.484 7.548 12.369 10.085 4.883 2.539 10.434 3.806 16.651 3.806 6.343 0 11.956-1.3 16.839-3.901 4.884-2.599 9.008-6.057 12.371-10.369 3.359-4.312 5.897-9.164 7.611-14.557 1.711-5.392 2.568-10.876 2.568-16.459 0-5.833-.922-11.479-2.76-16.935-1.84-5.453-4.441-10.275-7.802-14.461-3.363-4.187-7.486-7.516-12.368-9.99-4.886-2.474-10.37-3.71-16.46-3.71-6.346 0-11.989 1.302-16.937 3.901-4.948 2.602-9.071 6.026-12.369 10.275-3.301 4.251-5.804 9.071-7.517 14.46-1.711 5.393-2.568 10.878-2.568 16.459zm209.72-55.751h-48.143v123.3h-13.321v-123.3h-48.143V.951h109.606v11.798zm105.287 111.502v11.798h-90.77V.951h89.056v11.798h-75.735v48.71h66.031v11.227h-66.031v51.565h77.449zm107.514 0v11.798h-90.769V.951h89.055v11.798h-75.733v48.71h66.029v11.227h-66.029v51.565H800z"/></svg>