<?xml version="1.0" encoding="utf-8"?>
<!-- Generator: Adobe Illustrator 16.0.0, SVG Export Plug-In . SVG Version: 6.00 Build 0)  -->
<!DOCTYPE svg PUBLIC "-//W3C//DTD SVG 1.1//EN" "http://www.w3.org/Graphics/SVG/1.1/DTD/svg11.dtd">
<svg version="1.1" id="Layer_1" xmlns="http://www.w3.org/2000/svg" xmlns:xlink="http://www.w3.org/1999/xlink" x="0px" y="0px"
	 width="800px" height="800px" viewBox="0 0 800 800" enable-background="new 0 0 800 800" xml:space="preserve">
<path fill="#1A1A1A" d="M697.139,274.456c-10.741-25.396-24.563-49.063-41.239-70.751l28.211-28.211l-60.104-60.104l-28.277,28.278
	c-21.534-16.483-45.01-30.158-70.185-40.806C485.758,86.033,443.519,77.5,400,77.5s-85.758,8.533-125.544,25.361
	c-38.408,16.245-72.894,39.493-102.498,69.097s-52.852,64.089-69.097,102.498C86.033,314.242,77.5,356.481,77.5,400
	s8.533,85.758,25.361,125.545c10.648,25.175,24.323,48.65,40.806,70.184l-28.777,28.777l60.104,60.104l28.711-28.711
	c21.688,16.677,45.355,30.498,70.751,41.239C314.242,713.967,356.481,722.5,400,722.5s85.758-8.533,125.545-25.361
	c38.408-16.245,72.893-39.492,102.497-69.097s52.852-64.089,69.097-102.497C713.967,485.758,722.5,443.519,722.5,400
	S713.967,314.242,697.139,274.456z M162.5,400c0-130.958,106.542-237.5,237.5-237.5c50.03,0,96.487,15.563,134.813,42.084
	L204.584,534.812C178.063,496.487,162.5,450.03,162.5,400z M400,637.5c-50.288,0-96.965-15.724-135.402-42.494l330.408-330.408
	C621.776,303.035,637.5,349.712,637.5,400C637.5,530.958,530.958,637.5,400,637.5z"/>
</svg>
