<?xml version="1.0" encoding="utf-8"?>
<!-- Generator: Adobe Illustrator 16.0.0, SVG Export Plug-In . SVG Version: 6.00 Build 0)  -->
<!DOCTYPE svg PUBLIC "-//W3C//DTD SVG 1.1//EN" "http://www.w3.org/Graphics/SVG/1.1/DTD/svg11.dtd">
<svg version="1.1" id="Layer_1" xmlns="http://www.w3.org/2000/svg" xmlns:xlink="http://www.w3.org/1999/xlink" x="0px" y="0px"
	 width="800px" height="140px" viewBox="0 0 800 140" enable-background="new 0 0 800 140" xml:space="preserve">
<g>
	<path d="M0,117.761l76.307-92.286H2.094V2.452h104.47v19.789L32.73,114.525h74.404v23.024H0V117.761z"/>
	<path d="M218.455,114.525v23.024h-93.814V2.452h92.102v23.023h-65.841v32.539h56.897v21.311h-56.897v35.201H218.455z"/>
	<path d="M237.561,137.55V2.452h59.751c6.215,0,11.956,1.302,17.222,3.9c5.263,2.602,9.801,6.026,13.606,10.275
		c3.806,4.251,6.785,9.071,8.943,14.461c2.156,5.393,3.235,10.816,3.235,16.269c0,8.753-2.188,16.715-6.565,23.88
		c-4.377,7.168-10.309,12.338-17.792,15.508l30.827,50.805h-29.495L289.7,92.264h-25.88v45.286H237.561z M263.82,69.24h32.921
		c2.408,0,4.662-0.571,6.756-1.713c2.093-1.141,3.9-2.693,5.423-4.662c1.522-1.965,2.727-4.281,3.615-6.945
		c0.887-2.664,1.332-5.518,1.332-8.563c0-3.169-0.508-6.089-1.522-8.753c-1.017-2.664-2.378-4.977-4.091-6.945
		c-1.713-1.965-3.681-3.488-5.899-4.567c-2.221-1.077-4.472-1.618-6.755-1.618H263.82V69.24z"/>
	<path d="M416.681,138.5c-9.896,0-18.871-1.933-26.926-5.803c-8.058-3.867-14.971-9.005-20.742-15.412
		c-5.774-6.403-10.246-13.729-13.416-21.978c-3.172-8.244-4.757-16.68-4.757-25.307c0-9.006,1.68-17.631,5.043-25.878
		c3.359-8.244,7.992-15.537,13.891-21.882c5.899-6.342,12.908-11.384,21.027-15.127c8.118-3.74,16.937-5.613,26.451-5.613
		c9.767,0,18.679,1.998,26.736,5.994c8.054,3.996,14.938,9.229,20.646,15.699c5.709,6.469,10.147,13.828,13.321,22.072
		c3.169,8.247,4.757,16.619,4.757,25.116c0,9.008-1.65,17.602-4.948,25.782c-3.3,8.183-7.866,15.413-13.701,21.692
		c-5.836,6.278-12.814,11.293-20.932,15.032C435.012,136.631,426.195,138.5,416.681,138.5z M377.481,70.001
		c0,5.835,0.886,11.481,2.664,16.936c1.774,5.454,4.343,10.272,7.706,14.459c3.359,4.186,7.484,7.549,12.369,10.087
		c4.883,2.537,10.434,3.805,16.651,3.805c6.341,0,11.955-1.299,16.84-3.9c4.883-2.6,9.007-6.058,12.369-10.371
		c3.36-4.312,5.899-9.163,7.612-14.556c1.712-5.391,2.568-10.876,2.568-16.459c0-5.833-0.922-11.479-2.759-16.936
		c-1.841-5.453-4.442-10.275-7.802-14.461c-3.363-4.187-7.487-7.516-12.37-9.99c-4.884-2.474-10.37-3.71-16.459-3.71
		c-6.346,0-11.988,1.302-16.937,3.9c-4.947,2.602-9.071,6.026-12.369,10.275c-3.301,4.251-5.804,9.07-7.517,14.46
		C378.337,58.935,377.481,64.42,377.481,70.001z"/>
	<path d="M587.201,14.249h-48.144V137.55h-13.32V14.249h-48.145V2.452h109.608V14.249z"/>
	<path d="M692.486,125.753v11.797h-90.769V2.452h89.057v11.797h-75.737V62.96h66.032v11.225h-66.032v51.567H692.486z"/>
	<path d="M800,125.753v11.797h-90.769V2.452h89.057v11.797h-75.736V62.96h66.032v11.225h-66.032v51.567H800z"/>
</g>
</svg>
